# Blender v2.79 (sub 0) OBJ File: ''
# www.blender.org
mtllib skullhammer.mtl
o n0b0_n0b0.001
v -0.074587 0.296537 0.424872
v -0.254185 0.156074 0.675499
v -0.254185 0.156074 0.675499
v 0.074834 0.296551 0.424858
v -0.356040 0.034491 0.546089
v -0.356040 0.034491 0.546089
v -0.356040 0.034491 0.546089
v -0.074603 0.445957 0.407840
v -0.074603 0.445957 0.407840
v -0.258409 0.157747 0.547473
v -0.258409 0.157747 0.547473
v -0.258409 0.157747 0.547473
v 0.074818 0.445972 0.407825
v -0.083904 0.187098 0.955841
v -0.050938 0.419552 0.325323
v -0.050938 0.419552 0.325323
v -0.050938 0.419552 0.325323
v -0.050938 0.419552 0.325323
v -0.154508 0.152876 0.904670
v 0.051142 0.419561 0.325313
v 0.051142 0.419561 0.325313
v 0.051142 0.419561 0.325313
v 0.051142 0.419561 0.325313
v -0.241166 0.178478 0.864502
v -0.050927 0.318077 0.336420
v -0.050927 0.318077 0.336420
v -0.050927 0.318077 0.336420
v -0.050927 0.318077 0.336420
v -0.264605 0.132120 0.785251
v 0.051153 0.318087 0.336410
v 0.051153 0.318087 0.336410
v 0.051153 0.318087 0.336410
v 0.051153 0.318087 0.336410
v 0.051153 0.318087 0.336410
v -0.313658 0.134171 0.686655
v -0.069874 0.509984 0.432172
v -0.069874 0.509984 0.432172
v -0.301320 0.117645 0.612917
v 0.070081 0.509997 0.432159
v 0.070081 0.509997 0.432159
v -0.315845 0.136002 0.519241
v -0.315845 0.136002 0.519241
v 0.048907 0.479753 0.334727
v 0.048907 0.479753 0.334727
v 0.048907 0.479753 0.334727
v -0.269970 0.118261 0.483251
v -0.269970 0.118261 0.483251
v -0.048713 0.479744 0.334736
v -0.048713 0.479744 0.334736
v -0.048713 0.479744 0.334736
v -0.267307 0.123737 0.565219
v -0.267307 0.123737 0.565219
v -0.048689 0.259719 0.357067
v -0.048689 0.259719 0.357067
v -0.048689 0.259719 0.357067
v -0.237546 0.135486 0.641184
v -0.237546 0.135486 0.641184
v 0.048930 0.259728 0.357057
v 0.048930 0.259728 0.357057
v 0.048930 0.259728 0.357057
v -0.255469 0.135488 0.705110
v -0.255469 0.135488 0.705110
v 0.070111 0.231064 0.463584
v 0.070111 0.231064 0.463584
v -0.199829 0.135837 0.756573
v -0.199829 0.135837 0.756573
v -0.069844 0.231051 0.463598
v -0.069844 0.231051 0.463598
v -0.178719 0.135502 0.849767
v -0.178719 0.135502 0.849767
v 0.113414 0.321602 0.361991
v 0.113414 0.321602 0.361991
v 0.113414 0.321602 0.361991
v -0.119175 0.135508 0.856250
v -0.119175 0.135508 0.856250
v 0.129901 0.296269 0.443505
v 0.129901 0.296269 0.443505
v -0.065295 0.135516 0.920586
v -0.065295 0.135516 0.920586
v 0.113403 0.418599 0.350981
v 0.113403 0.418599 0.350981
v 0.113403 0.418599 0.350981
v -0.249170 -0.000025 0.608612
v -0.249170 -0.000025 0.608612
v -0.249170 -0.000025 0.608612
v 0.129885 0.448953 0.424399
v 0.129885 0.448953 0.424399
v -0.280371 -0.000018 0.713997
v -0.280371 -0.000018 0.713997
v -0.113183 0.321581 0.362013
v -0.113183 0.321581 0.362013
v -0.113183 0.321581 0.362013
v -0.213966 -0.000005 0.784858
v -0.213966 -0.000005 0.784858
v -0.213966 -0.000005 0.784858
v -0.129651 0.296244 0.443529
v -0.129651 0.296244 0.443529
v -0.205182 0.000005 0.875137
v -0.205182 0.000005 0.875137
v -0.129667 0.448928 0.424424
v -0.129667 0.448928 0.424424
v -0.136825 0.000012 0.882580
v -0.136825 0.000012 0.882580
v -0.136825 0.000012 0.882580
v -0.113194 0.418577 0.351002
v -0.113194 0.418577 0.351002
v -0.113194 0.418577 0.351002
v -0.074970 0.000025 0.956438
v -0.074970 0.000025 0.956438
v 0.000100 0.411328 0.292968
v 0.000100 0.411328 0.292968
v -0.092475 0.464629 0.365852
v -0.092475 0.464629 0.365852
v -0.041701 0.369519 0.292972
v -0.041701 0.369519 0.292972
v -0.079276 0.280304 0.382933
v -0.079276 0.280304 0.382933
v 0.000108 0.327717 0.292968
v 0.000108 0.327717 0.292968
v 0.000050 0.384282 -0.253751
v 0.041909 0.369527 0.292964
v 0.041909 0.369527 0.292964
v 0.014811 0.369523 -0.253752
v 0.000103 0.443174 0.359699
v 0.000053 0.354762 -0.253751
v -0.073541 0.369516 0.359706
v -0.014709 0.369520 -0.253749
v 0.000117 0.295871 0.359699
v 0.000087 0.398080 0.147362
v 0.073761 0.369530 0.359692
v 0.028647 0.369525 0.147359
v -0.000002 0.387977 -0.793397
v 0.000093 0.340965 0.147362
v -0.018455 0.369521 -0.793395
v -0.028468 0.369520 0.147365
v 0.000001 0.351068 -0.793397
v 0.018455 0.369524 -0.793398
v 0.000032 0.382753 -0.446535
v 0.000032 0.382753 -0.446535
v -0.013198 0.369521 -0.446534
v -0.013198 0.369521 -0.446534
v 0.000034 0.356292 -0.446535
v 0.000034 0.356292 -0.446535
v 0.013263 0.369524 -0.446537
v 0.013263 0.369524 -0.446537
v 0.000068 0.385812 -0.060967
v 0.000068 0.385812 -0.060967
v -0.016220 0.369521 -0.060966
v -0.016220 0.369521 -0.060966
v 0.000071 0.353233 -0.060967
v 0.000071 0.353233 -0.060967
v 0.016360 0.369524 -0.060969
v 0.016360 0.369524 -0.060969
v 0.000105 0.399587 0.330714
v -0.029957 0.369520 0.330717
v 0.000110 0.339458 0.330714
v 0.030172 0.369526 0.330711
v 0.000030 0.387482 -0.463852
v 0.017990 0.369524 -0.463853
v 0.000033 0.351564 -0.463852
v -0.017928 0.369521 -0.463850
v 0.000070 0.396573 -0.035991
v 0.000070 0.396573 -0.035991
v 0.027123 0.369525 -0.035993
v 0.027123 0.369525 -0.035993
v 0.000075 0.342472 -0.035991
v 0.000075 0.342472 -0.035991
v -0.026978 0.369520 -0.035988
v -0.026978 0.369520 -0.035988
v 0.014397 0.450546 -0.745274
v 0.014397 0.450546 -0.745274
v 0.014397 0.450546 -0.745274
v -0.014404 0.450543 -0.745272
v -0.014404 0.450543 -0.745272
v -0.014404 0.450543 -0.745272
v -0.014405 0.460201 -0.749831
v -0.014405 0.460201 -0.749831
v -0.014405 0.460201 -0.749831
v 0.014396 0.460204 -0.749833
v 0.014396 0.460204 -0.749833
v 0.014396 0.460204 -0.749833
v 0.024456 0.395842 -0.788060
v 0.024456 0.395842 -0.788060
v -0.024460 0.395837 -0.788055
v -0.024460 0.395837 -0.788055
v -0.024464 0.399774 -0.817535
v -0.024464 0.399774 -0.817535
v -0.024464 0.399774 -0.817535
v 0.024453 0.399778 -0.817540
v 0.024453 0.399778 -0.817540
v 0.024453 0.399778 -0.817540
v 0.030750 0.341883 -0.787935
v 0.030750 0.341883 -0.787935
v -0.030745 0.341878 -0.787929
v -0.030745 0.341878 -0.787929
v -0.030747 0.340664 -0.817660
v -0.030747 0.340664 -0.817660
v 0.030748 0.340670 -0.817666
v 0.030748 0.340670 -0.817666
v 0.037159 0.313150 -0.774817
v 0.037159 0.313150 -0.774817
v 0.037159 0.313150 -0.774817
v -0.037145 0.313143 -0.774810
v -0.037145 0.313143 -0.774810
v -0.037145 0.313143 -0.774810
v -0.037147 0.298655 -0.807145
v -0.037147 0.298655 -0.807145
v -0.037147 0.298655 -0.807145
v 0.037157 0.298662 -0.807152
v 0.037157 0.298662 -0.807152
v 0.037157 0.298662 -0.807152
v 0.018574 0.426669 -0.780329
v 0.018574 0.426669 -0.780329
v 0.018572 0.437931 -0.792428
v 0.018572 0.437931 -0.792428
v -0.018585 0.437928 -0.792424
v -0.018585 0.437928 -0.792424
v -0.018583 0.426665 -0.780325
v -0.018583 0.426665 -0.780325
v 0.293739 0.000016 0.493508
v 0.293739 0.000016 0.493508
v 0.293739 0.000016 0.493508
v 0.293739 0.000016 0.493508
v 0.293739 0.000016 0.493508
v 0.210104 -0.000007 0.341301
v 0.210104 -0.000007 0.341301
v 0.210104 -0.000007 0.341301
v 0.000136 -0.000034 0.261131
v 0.000136 -0.000034 0.261131
v 0.000189 0.115281 0.927295
v 0.144134 0.121168 0.882476
v 0.234773 0.119162 0.774849
v 0.271843 0.088928 0.630169
v 0.083688 0.081419 0.961686
v 0.217182 0.064311 0.876246
v 0.289590 0.060878 0.697274
v 0.319864 0.053088 0.547697
v 0.000193 0.110650 0.962007
v 0.000193 0.110650 0.962007
v 0.164561 0.107850 0.913154
v 0.164561 0.107850 0.913154
v 0.267450 0.099991 0.806270
v 0.267450 0.099991 0.806270
v 0.311349 0.072771 0.618414
v 0.311349 0.072771 0.618414
v 0.191770 0.146567 0.516118
v 0.191770 0.146567 0.516118
v 0.199330 0.118300 0.357779
v 0.000127 0.118274 0.282439
v 0.000180 0.167893 0.887144
v 0.000180 0.167893 0.887144
v 0.137675 0.182295 0.836181
v 0.137675 0.182295 0.836181
v 0.236252 0.167919 0.750817
v 0.236252 0.167919 0.750817
v 0.272760 0.167916 0.600082
v 0.272760 0.167916 0.600082
v 0.146623 0.193831 0.537112
v 0.146623 0.193831 0.537112
v 0.146623 0.193831 0.537112
v 0.000142 0.163880 0.482676
v 0.000142 0.163880 0.482676
v 0.114092 0.247287 0.782996
v 0.197487 0.247290 0.699585
v 0.228001 0.247283 0.561940
v 0.228001 0.247283 0.561940
v 0.246404 0.312930 0.495063
v 0.246404 0.312930 0.495063
v 0.246404 0.312930 0.495063
v 0.140572 0.287232 0.407682
v 0.140572 0.287232 0.407682
v 0.140572 0.287232 0.407682
v 0.000151 0.370936 0.789764
v 0.000151 0.370936 0.789764
v 0.077041 0.288655 0.788100
v 0.077041 0.288655 0.788100
v 0.145837 0.289156 0.713232
v 0.145837 0.289156 0.713232
v 0.145837 0.289156 0.713232
v 0.202125 0.367066 0.603820
v 0.202125 0.367066 0.603820
v 0.202125 0.367066 0.603820
v 0.202125 0.367066 0.603820
v 0.108154 0.653898 0.744304
v 0.108154 0.653898 0.744304
v 0.108154 0.653898 0.744304
v 0.108154 0.653898 0.744304
v 0.000109 0.680052 0.652226
v 0.000109 0.680052 0.652226
v 0.000133 0.663406 0.889961
v 0.000133 0.663406 0.889961
v 0.000133 0.663406 0.889961
v 0.119768 0.663416 0.855791
v 0.119768 0.663416 0.855791
v 0.216189 0.663424 0.765198
v 0.216189 0.663424 0.765198
v 0.216189 0.663424 0.765198
v 0.106565 0.867784 0.519110
v 0.106565 0.867784 0.519110
v 0.106565 0.867784 0.519110
v 0.106565 0.867784 0.519110
v 0.000081 0.887044 0.572617
v 0.000081 0.887044 0.572617
v 0.000082 0.917294 0.617018
v 0.000082 0.917294 0.617018
v 0.072108 0.904071 0.593646
v 0.072108 0.904071 0.593646
v 0.000162 0.305868 0.838146
v 0.000162 0.305868 0.838146
v 0.000146 0.509739 0.873737
v 0.000146 0.509739 0.873737
v 0.000146 0.509739 0.873737
v 0.246051 0.579057 0.754498
v 0.246051 0.579057 0.754498
v 0.052422 0.505868 0.630435
v 0.052422 0.505868 0.630435
v 0.052422 0.505868 0.630435
v 0.126258 0.641158 0.535995
v 0.126258 0.641158 0.535995
v 0.126258 0.641158 0.535995
v 0.000099 0.655658 0.524939
v 0.045603 0.382923 0.626491
v 0.258938 0.469825 0.608887
v 0.258938 0.469825 0.608887
v 0.258481 0.448166 0.487153
v 0.258481 0.448166 0.487153
v 0.258481 0.448166 0.487153
v 0.258481 0.448166 0.487153
v 0.150720 0.446320 0.394573
v 0.150720 0.446320 0.394573
v 0.150720 0.446320 0.394573
v 0.164630 0.530091 0.840300
v 0.164630 0.530091 0.840300
v 0.000105 0.855203 0.793172
v 0.000105 0.855203 0.793172
v 0.111863 0.815696 0.757264
v 0.111863 0.815696 0.757264
v 0.173262 0.765995 0.709476
v 0.173262 0.765995 0.709476
v 0.173262 0.765995 0.709476
v 0.000106 0.802989 0.744969
v 0.083289 0.960683 0.574386
v 0.083289 0.960683 0.574386
v 0.083289 0.960683 0.574386
v 0.055873 0.972009 0.613319
v 0.055873 0.972009 0.613319
v 0.000078 0.979987 0.637065
v 0.000078 0.979987 0.637065
v 0.055544 1.019873 0.563981
v 0.055544 1.019873 0.563981
v 0.033272 1.041269 0.585473
v 0.000068 1.050385 0.595498
v 0.000049 1.105787 0.452288
v 0.000049 1.105787 0.452288
v 0.046743 0.252195 0.823434
v 0.046743 0.252195 0.823434
v 0.058717 0.439126 0.812704
v 0.058717 0.439126 0.812704
v 0.047039 0.351057 0.769213
v 0.047039 0.351057 0.769213
v 0.034116 0.390483 0.790960
v 0.034116 0.390483 0.790960
v 0.094081 0.519921 0.865128
v 0.094081 0.519921 0.865128
v 0.231091 0.475584 0.712972
v 0.231091 0.475584 0.712972
v 0.185326 0.568321 0.466927
v 0.185326 0.568321 0.466927
v 0.185326 0.568321 0.466927
v 0.185326 0.568321 0.466927
v 0.185326 0.568321 0.466927
v 0.185326 0.568321 0.466927
v 0.000093 0.590240 0.402011
v 0.000093 0.590240 0.402011
v 0.000159 0.316073 0.813690
v 0.028645 0.267021 0.807578
v 0.028645 0.267021 0.807578
v 0.035696 0.245585 0.715770
v 0.000168 0.256631 0.844407
v 0.000067 1.032258 0.571730
v 0.000075 0.966196 0.593444
v 0.062712 0.881695 0.555503
v 0.062712 0.881695 0.555503
v 0.096852 0.887607 0.559765
v 0.096852 0.887607 0.559765
v 0.095646 0.076585 1.023789
v 0.095646 0.076585 1.023789
v 0.068327 0.195456 0.861662
v 0.068327 0.195456 0.861662
v 0.260949 0.069939 0.920749
v 0.260949 0.069939 0.920749
v 0.186360 0.225054 0.793499
v 0.186360 0.225054 0.793499
v 0.339284 0.035807 0.696170
v 0.339284 0.035807 0.696170
v 0.254507 0.156122 0.675450
v 0.254507 0.156122 0.675450
v 0.356360 0.034559 0.546021
v 0.356360 0.034559 0.546021
v 0.356360 0.034559 0.546021
v 0.258706 0.157797 0.547423
v 0.258706 0.157797 0.547423
v 0.258706 0.157797 0.547423
v 0.000189 0.143382 0.956233
v 0.084273 0.187114 0.955824
v 0.154874 0.152905 0.904640
v 0.241520 0.178525 0.864456
v 0.264953 0.132171 0.785201
v 0.313987 0.134231 0.686595
v 0.301637 0.117702 0.612859
v 0.316141 0.136063 0.519181
v 0.316141 0.136063 0.519181
v 0.270262 0.118313 0.483199
v 0.270262 0.118313 0.483199
v 0.267614 0.123788 0.565168
v 0.267614 0.123788 0.565168
v 0.237866 0.135532 0.641139
v 0.237866 0.135532 0.641139
v 0.255800 0.135537 0.705061
v 0.255800 0.135537 0.705061
v 0.200171 0.135876 0.756535
v 0.200171 0.135876 0.756535
v 0.179078 0.135536 0.849732
v 0.179078 0.135536 0.849732
v 0.119536 0.135531 0.856227
v 0.119536 0.135531 0.856227
v 0.065668 0.135529 0.920573
v 0.065668 0.135529 0.920573
v 0.000183 0.135521 0.887398
v 0.000183 0.135521 0.887398
v 0.249509 0.000023 0.608565
v 0.249509 0.000023 0.608565
v 0.249509 0.000023 0.608565
v 0.280730 0.000036 0.713943
v 0.280730 0.000036 0.713943
v 0.214339 0.000036 0.784817
v 0.214339 0.000036 0.784817
v 0.214339 0.000036 0.784817
v 0.205572 0.000044 0.875097
v 0.205572 0.000044 0.875097
v 0.137217 0.000038 0.882553
v 0.137217 0.000038 0.882553
v 0.137217 0.000038 0.882553
v 0.075376 0.000039 0.956423
v 0.075376 0.000039 0.956423
v 0.000199 0.000029 0.918338
v 0.000199 0.000029 0.918338
v 0.000199 0.000029 0.918338
v -0.035384 0.245578 0.715777
v 0.081582 0.518577 0.377572
v 0.081582 0.518577 0.377572
v 0.081582 0.518577 0.377572
v -0.081387 0.518562 0.377587
v -0.081387 0.518562 0.377587
v -0.081387 0.518562 0.377587
v 0.092679 0.464646 0.365834
v 0.092679 0.464646 0.365834
v 0.079518 0.280320 0.382917
v 0.079518 0.280320 0.382917
v 0.081491 0.222047 0.406687
v 0.081491 0.222047 0.406687
v -0.081233 0.222032 0.406703
v -0.081233 0.222032 0.406703
v 0.000126 0.372291 0.528268
v -0.293422 -0.000040 0.493565
v -0.293422 -0.000040 0.493565
v -0.293422 -0.000040 0.493565
v -0.293422 -0.000040 0.493565
v -0.293422 -0.000040 0.493565
v -0.209817 -0.000047 0.341341
v -0.209817 -0.000047 0.341341
v -0.209817 -0.000047 0.341341
v -0.143766 0.121140 0.882504
v -0.234425 0.119117 0.774894
v -0.271516 0.088876 0.630221
v -0.083297 0.081403 0.961702
v -0.216804 0.064270 0.876287
v -0.289246 0.060823 0.697329
v -0.319547 0.053027 0.547758
v -0.164185 0.107819 0.913185
v -0.164185 0.107819 0.913185
v -0.267092 0.099940 0.806321
v -0.267092 0.099940 0.806321
v -0.311022 0.072712 0.618475
v -0.311022 0.072712 0.618475
v -0.191477 0.146530 0.516155
v -0.191477 0.146530 0.516155
v -0.199062 0.118262 0.357818
v -0.137327 0.182269 0.836207
v -0.137327 0.182269 0.836207
v -0.235918 0.167874 0.750862
v -0.235918 0.167874 0.750862
v -0.272455 0.167863 0.600134
v -0.272455 0.167863 0.600134
v -0.146335 0.193803 0.537141
v -0.146335 0.193803 0.537141
v -0.146335 0.193803 0.537141
v -0.113767 0.247265 0.783018
v -0.197178 0.247252 0.699623
v -0.227718 0.247240 0.561984
v -0.227718 0.247240 0.561984
v -0.246146 0.312883 0.495110
v -0.246146 0.312883 0.495110
v -0.246146 0.312883 0.495110
v -0.140326 0.287205 0.407709
v -0.140326 0.287205 0.407709
v -0.140326 0.287205 0.407709
v -0.076723 0.288640 0.788115
v -0.076723 0.288640 0.788115
v -0.145534 0.289128 0.713260
v -0.145534 0.289128 0.713260
v -0.145534 0.289128 0.713260
v -0.201857 0.367027 0.603858
v -0.201857 0.367027 0.603858
v -0.201857 0.367027 0.603858
v -0.201857 0.367027 0.603858
v -0.107914 0.653877 0.744324
v -0.107914 0.653877 0.744324
v -0.107914 0.653877 0.744324
v -0.107914 0.653877 0.744324
v -0.119509 0.663393 0.855814
v -0.119509 0.663393 0.855814
v -0.215947 0.663382 0.765240
v -0.215947 0.663382 0.765240
v -0.215947 0.663382 0.765240
v -0.106409 0.867763 0.519131
v -0.106409 0.867763 0.519131
v -0.106409 0.867763 0.519131
v -0.106409 0.867763 0.519131
v -0.071945 0.904057 0.593659
v -0.071945 0.904057 0.593659
v -0.245795 0.579009 0.754546
v -0.245795 0.579009 0.754546
v -0.052176 0.505858 0.630445
v -0.052176 0.505858 0.630445
v -0.052176 0.505858 0.630445
v -0.126056 0.641134 0.536019
v -0.126056 0.641134 0.536019
v -0.126056 0.641134 0.536019
v -0.045334 0.382914 0.626500
v -0.258689 0.469776 0.608937
v -0.258689 0.469776 0.608937
v -0.258251 0.448117 0.487203
v -0.258251 0.448117 0.487203
v -0.258251 0.448117 0.487203
v -0.258251 0.448117 0.487203
v -0.150508 0.446291 0.394602
v -0.150508 0.446291 0.394602
v -0.150508 0.446291 0.394602
v -0.164348 0.530059 0.840331
v -0.164348 0.530059 0.840331
v -0.111651 0.815675 0.757285
v -0.111651 0.815675 0.757285
v -0.173050 0.765961 0.709509
v -0.173050 0.765961 0.709509
v -0.173050 0.765961 0.709509
v -0.083141 0.960667 0.574401
v -0.083141 0.960667 0.574401
v -0.083141 0.960667 0.574401
v -0.055719 0.971999 0.613329
v -0.055719 0.971999 0.613329
v -0.055409 1.019863 0.563992
v -0.055409 1.019863 0.563992
v -0.033137 1.041263 0.585480
v -0.046412 0.252186 0.823443
v -0.046412 0.252186 0.823443
v -0.058423 0.439115 0.812715
v -0.058423 0.439115 0.812715
v -0.046737 0.351048 0.769222
v -0.046737 0.351048 0.769222
v -0.033817 0.390477 0.790967
v -0.033817 0.390477 0.790967
v -0.093793 0.519903 0.865146
v -0.093793 0.519903 0.865146
v -0.230823 0.475540 0.713016
v -0.230823 0.475540 0.713016
v -0.185123 0.568285 0.466963
v -0.185123 0.568285 0.466963
v -0.185123 0.568285 0.466963
v -0.185123 0.568285 0.466963
v -0.185123 0.568285 0.466963
v -0.185123 0.568285 0.466963
v -0.028319 0.267015 0.807584
v -0.028319 0.267015 0.807584
v -0.062552 0.881683 0.555515
v -0.062552 0.881683 0.555515
v -0.096692 0.887589 0.559783
v -0.096692 0.887589 0.559783
v -0.095242 0.076566 1.023808
v -0.095242 0.076566 1.023808
v -0.067977 0.195443 0.861676
v -0.067977 0.195443 0.861676
v -0.260564 0.069889 0.920799
v -0.260564 0.069889 0.920799
v -0.186029 0.225019 0.793535
v -0.186029 0.225019 0.793535
v -0.338935 0.035742 0.696235
v -0.338935 0.035742 0.696235
vt 0.281250 0.988281
vt 0.015625 0.988281
vt 0.281250 0.976562
vt 0.015625 0.976562
vt 0.281250 0.976562
vt 0.015625 0.953125
vt 0.281250 0.953125
vt 0.015625 0.976562
vt 0.546875 0.953125
vt 0.546875 0.976562
vt 0.546875 0.976562
vt 0.546875 0.988281
vt 0.265625 0.964844
vt 0.070312 0.964844
vt 0.265625 0.902344
vt 0.070312 0.902344
vt 0.265625 0.902344
vt 0.070312 0.812500
vt 0.265625 0.812500
vt 0.070312 0.902344
vt 0.347656 0.976562
vt 0.046875 0.976562
vt 0.347656 0.988281
vt 0.046875 0.953125
vt 0.347656 0.953125
vt 0.046875 0.976562
vt 0.347656 0.976562
vt 0.046875 0.988281
vt 0.457031 0.902344
vt 0.457031 0.812500
vt 0.457031 0.964844
vt 0.457031 0.902344
vt -0.035156 0.054688
vt -0.109375 0.054688
vt -0.035156 0.105469
vt -0.109375 0.007812
vt -0.035156 0.007812
vt -0.109375 0.054688
vt -0.035156 0.054688
vt -0.109375 0.105469
vt 0.574219 0.828125
vt 0.875000 0.937500
vt 0.796875 0.812500
vt 0.722656 0.937500
vt 0.421875 0.863281
vt 0.597656 0.976562
vt 0.273438 0.875000
vt 0.375000 0.988281
vt 0.097656 0.875000
vt 0.121094 0.992188
vt 1.398438 0.054688
vt 1.398438 0.105469
vt 1.398438 0.007812
vt 1.398438 0.054688
vt 0.339844 0.890625
vt 0.621094 0.800781
vt 0.375000 0.800781
vt 0.656250 0.890625
vt 0.292969 0.925781
vt 0.703125 0.925781
vt 0.238281 0.964844
vt 0.757812 0.964844
vt 0.183594 0.988281
vt 0.812500 0.988281
vt 0.652344 0.867188
vt 0.375000 0.839844
vt 0.621094 0.839844
vt 0.343750 0.867188
vt 0.683594 0.890625
vt 0.312500 0.890625
vt 0.335938 0.890625
vt 0.710938 0.839844
vt 0.285156 0.839844
vt 0.660156 0.890625
vt 0.371094 0.996094
vt 0.625000 0.996094
vt 0.171875 0.953125
vt 0.125000 0.800781
vt 0.171875 0.800781
vt 0.125000 0.953125
vt 0.347656 0.847656
vt 0.125000 0.890625
vt 0.347656 0.890625
vt 0.125000 0.847656
vt 0.347656 0.847656
vt 0.125000 0.890625
vt 0.347656 0.890625
vt 0.125000 0.847656
vt 0.347656 0.847656
vt 0.125000 0.890625
vt 0.347656 0.890625
vt 0.125000 0.847656
vt 0.570312 0.886719
vt 0.425781 0.890625
vt 0.570312 0.890625
vt 0.425781 0.886719
vt 0.125000 0.847656
vt 0.347656 0.847656
vt 0.171875 0.800781
vt 0.125000 0.953125
vt 0.171875 0.953125
vt 0.125000 0.800781
vt 0.171875 0.953125
vt 0.125000 0.800781
vt 0.125000 0.953125
vt 0.171875 0.800781
vt 0.171875 0.800781
vt 0.125000 0.953125
vt 0.125000 0.800781
vt 0.171875 0.953125
vt 0.199219 0.820312
vt 0.199219 0.960938
vt 0.097656 0.941406
vt 0.296875 0.941406
vt 0.199219 0.820312
vt 0.199219 0.960938
vt 0.097656 0.941406
vt 0.296875 0.941406
vt 0.199219 0.960938
vt 0.199219 0.820312
vt 0.097656 0.941406
vt 0.296875 0.941406
vt 0.199219 0.960938
vt 0.199219 0.820312
vt 0.097656 0.941406
vt 0.296875 0.941406
vt 0.199219 0.960938
vt 0.097656 0.941406
vt 0.199219 0.960938
vt 0.097656 0.941406
vt 0.296875 0.941406
vt 0.097656 0.875000
vt 0.375000 0.988281
vt 0.121094 0.992188
vt 0.273438 0.875000
vt 0.597656 0.976562
vt 0.421875 0.863281
vt 0.722656 0.937500
vt 0.574219 0.828125
vt 0.875000 0.937500
vt 0.796875 0.812500
vt 0.359375 0.816406
vt 0.156250 0.863281
vt 0.156250 0.796875
vt 0.359375 0.863281
vt 0.156250 0.863281
vt 0.359375 0.863281
vt 0.156250 0.906250
vt 0.359375 0.988281
vt 0.500000 0.792969
vt 0.500000 0.964844
vt 0.722656 0.917969
vt 0.273438 0.917969
vt 0.199219 0.960938
vt 0.097656 0.941406
vt 0.296875 0.941406
vt 0.199219 0.953125
vt 0.199219 0.800781
vt 0.097656 0.953125
vt 0.296875 0.953125
vt 0.175781 0.988281
vt 0.820312 0.828125
vt 0.175781 0.828125
vt 0.820312 0.988281
vt 0.851562 0.988281
vt 0.144531 0.925781
vt 0.851562 0.925781
vt 0.144531 0.988281
vt 0.039062 0.765625
vt 0.042969 0.765625
vt 0.046875 0.765625
vt 0.035156 0.769531
vt 0.031250 0.769531
vt 0.035156 0.769531
vt 0.031250 0.769531
vt 0.035156 0.773438
vt 0.035156 0.773438
vt 0.351562 0.718750
vt 0.707031 0.695312
vt 0.335938 0.695312
vt 0.699219 0.718750
vt 0.351562 0.742188
vt 0.699219 0.742188
vt 0.367188 0.765625
vt 0.769531 0.761719
vt 0.476562 0.777344
vt 0.367188 0.765625
vt 0.769531 0.761719
vt 0.476562 0.777344
vt 0.699219 0.742188
vt 0.351562 0.742188
vt 0.699219 0.718750
vt 0.351562 0.718750
vt 0.707031 0.695312
vt 0.335938 0.695312
vt 0.269531 0.195312
vt 0.269531 0.339844
vt 0.203125 0.246094
vt 0.203125 0.246094
vt 0.023438 0.230469
vt 0.269531 0.195312
vt 0.023438 0.175781
vt 0.269531 0.175781
vt 0.269531 0.195312
vt 0.023438 0.175781
vt 0.269531 0.175781
vt 0.023438 0.230469
vt 0.203125 0.246094
vt 0.269531 0.195312
vt 0.269531 0.339844
vt 0.203125 0.246094
vt 0.042969 0.742188
vt 0.035156 0.734375
vt 0.023438 0.746094
vt 0.058594 0.738281
vt 0.058594 0.773438
vt 0.042969 0.742188
vt 0.035156 0.746094
vt 0.023438 0.746094
vt 0.210938 0.769531
vt 0.683594 0.773438
vt 0.601562 0.742188
vt 0.601562 0.742188
vt 0.210938 0.726562
vt 0.550781 0.718750
vt 0.210938 0.703125
vt 0.496094 0.703125
vt 0.035156 0.761719
vt 0.039062 0.761719
vt 0.035156 0.761719
vt 0.035156 0.761719
vt 0.031250 0.761719
vt 0.031250 0.761719
vt 0.031250 0.761719
vt 0.027344 0.761719
vt 0.023438 0.175781
vt 0.269531 0.175781
vt 0.023438 0.230469
vt 0.269531 0.339844
vt 0.722656 0.875000
vt 0.824219 0.988281
vt 0.722656 0.988281
vt 0.824219 0.875000
vt 0.023438 0.800781
vt 0.722656 0.875000
vt 0.023438 0.800781
vt 0.023438 0.828125
vt 0.035156 0.773438
vt 0.035156 0.769531
vt 0.039062 0.773438
vt 0.031250 0.769531
vt 0.027344 0.769531
vt 0.269531 0.195312
vt 0.269531 0.339844
vt 0.203125 0.246094
vt 0.023438 0.230469
vt 0.269531 0.175781
vt 0.859375 0.726562
vt 0.628906 0.718750
vt 0.859375 0.722656
vt 0.628906 0.722656
vt 0.628906 0.718750
vt 0.425781 0.718750
vt 0.425781 0.710938
vt 0.039062 0.765625
vt 0.046875 0.761719
vt 0.046875 0.765625
vt 0.039062 0.761719
vt 0.035156 0.761719
vt 0.035156 0.761719
vt 0.031250 0.761719
vt 0.972656 0.730469
vt 0.480469 0.742188
vt 0.480469 0.699219
vt 0.476562 0.769531
vt 0.972656 0.730469
vt 0.480469 0.742188
vt 0.480469 0.699219
vt 0.613281 0.710938
vt 0.566406 0.718750
vt 0.566406 0.703125
vt 0.613281 0.738281
vt 0.656250 0.738281
vt 0.613281 0.710938
vt 0.656250 0.718750
vt 0.386719 0.714844
vt 0.492188 0.703125
vt 0.460938 0.695312
vt 0.550781 0.738281
vt 0.382812 0.738281
vt 0.386719 0.714844
vt 0.296875 0.765625
vt 0.546875 0.738281
vt 0.464844 0.761719
vt 0.621094 0.722656
vt 0.296875 0.726562
vt 0.296875 0.707031
vt 0.425781 0.722656
vt 0.628906 0.726562
vt 0.859375 0.722656
vt 0.859375 0.730469
vt 0.675781 0.710938
vt 0.621094 0.722656
vt 0.296875 0.726562
vt 0.296875 0.765625
vt 0.566406 0.738281
vt 0.566406 0.718750
vt 0.566406 0.703125
vt 0.035156 0.769531
vt 0.039062 0.765625
vt 0.042969 0.765625
vt 0.031250 0.769531
vt 0.031250 0.769531
vt 0.035156 0.765625
vt 0.031250 0.769531
vt 0.035156 0.765625
vt 0.269531 0.195312
vt 0.269531 0.339844
vt 0.203125 0.246094
vt 0.023438 0.230469
vt 0.722656 0.988281
vt 0.023438 0.875000
vt 0.023438 0.988281
vt 0.023438 0.175781
vt 0.269531 0.175781
vt 0.269531 0.175781
vt 0.035156 0.765625
vt 0.035156 0.765625
vt 0.039062 0.765625
vt 0.628906 0.753906
vt 0.859375 0.742188
vt 0.859375 0.750000
vt 0.628906 0.742188
vt 0.425781 0.753906
vt 0.425781 0.742188
vt 0.050781 0.769531
vt 0.054688 0.769531
vt 0.054688 0.769531
vt 0.050781 0.769531
vt 0.039062 0.769531
vt 0.042969 0.769531
vt 0.031250 0.761719
vt 0.031250 0.761719
vt 0.031250 0.761719
vt 0.035156 0.761719
vt 0.031250 0.765625
vt 0.023438 0.175781
vt 0.269531 0.195312
vt 0.269531 0.175781
vt 0.023438 0.230469
vt 0.058594 0.730469
vt 0.035156 0.734375
vt 0.035156 0.765625
vt 0.031250 0.769531
vt 0.035156 0.765625
vt 0.164062 0.734375
vt 0.542969 0.726562
vt 0.492188 0.703125
vt 0.515625 0.738281
vt 0.324219 0.765625
vt 0.492188 0.777344
vt 0.628906 0.738281
vt 0.859375 0.730469
vt 0.859375 0.738281
vt 0.628906 0.726562
vt 0.425781 0.734375
vt 0.425781 0.722656
vt 0.046875 0.761719
vt 0.042969 0.761719
vt 0.765625 0.722656
vt 0.425781 0.703125
vt 0.531250 0.699219
vt 0.414062 0.746094
vt 0.589844 0.765625
vt 0.414062 0.761719
vt 0.765625 0.769531
vt 0.589844 0.765625
vt 0.765625 0.722656
vt 0.414062 0.746094
vt 0.671875 0.726562
vt 0.492188 0.703125
vt 0.648438 0.718750
vt 0.679688 0.738281
vt 0.671875 0.726562
vt 0.468750 0.730469
vt 0.570312 0.769531
vt 0.441406 0.757812
vt 0.468750 0.730469
vt 0.628906 0.761719
vt 0.628906 0.773438
vt 0.859375 0.757812
vt 0.425781 0.761719
vt 0.425781 0.753906
vt 0.628906 0.742188
vt 0.628906 0.753906
vt 0.425781 0.742188
vt 0.425781 0.734375
vt 0.859375 0.750000
vt 0.035156 0.761719
vt 0.203125 0.246094
vt 0.023438 0.230469
vt 0.269531 0.339844
vt 0.074219 0.765625
vt 0.722656 0.765625
vt 0.046875 0.765625
vt 0.523438 0.714844
vt 0.296875 0.714844
vt 0.023438 0.800781
vt 0.023438 0.828125
vt 0.023438 0.875000
vt 0.984375 0.742188
vt 0.750000 0.761719
vt 0.750000 0.773438
vt 0.750000 0.757812
vt 0.750000 0.722656
vt 0.750000 0.722656
vt 0.750000 0.710938
vt 0.750000 0.710938
vt 0.992188 0.726562
vt 0.523438 0.718750
vt 0.457031 0.703125
vt 0.531250 0.730469
vt 0.535156 0.746094
vt 0.750000 0.722656
vt 0.750000 0.722656
vt 0.750000 0.757812
vt 0.035156 0.765625
vt 0.035156 0.765625
vt 0.046875 0.761719
vt 0.046875 0.761719
vt 0.042969 0.761719
vt 0.992188 0.726562
vt 0.363281 0.726562
vt 0.433594 0.703125
vt 0.472656 0.765625
vt 0.480469 0.773438
vt 0.269531 0.339844
vt 0.203125 0.246094
vt 0.023438 0.230469
vt 0.050781 0.765625
vt 0.050781 0.765625
vt 0.628906 0.738281
vt 0.859375 0.738281
vt 0.859375 0.742188
vt 0.523438 0.125000
vt 0.523438 0.675781
vt 0.699219 0.675781
vt 0.699219 0.675781
vt 0.921875 0.613281
vt 0.972656 0.437500
vt 0.921875 0.164062
vt 0.921875 0.613281
vt 0.628906 0.726562
vt 0.628906 0.726562
vt 0.425781 0.722656
vt 0.859375 0.730469
vt 0.859375 0.730469
vt 0.425781 0.710938
vt 0.425781 0.722656
vt 0.750000 0.773438
vt 0.750000 0.761719
vt 0.628906 0.761719
vt 0.859375 0.757812
vt 0.023438 0.175781
vt 0.472656 0.976562
vt 0.593750 0.851562
vt 0.574219 0.976562
vt 0.472656 0.851562
vt 0.695312 0.851562
vt 0.671875 0.976562
vt 0.898438 0.976562
vt 0.878906 0.851562
vt 0.847656 0.976562
vt 0.929688 0.851562
vt 0.796875 0.976562
vt 0.820312 0.851562
vt 0.773438 0.976562
vt 0.804688 0.851562
vt 0.898438 0.976562
vt 0.878906 0.851562
vt 0.929688 0.851562
vt 0.847656 0.976562
vt 0.796875 0.976562
vt 0.820312 0.851562
vt 0.773438 0.976562
vt 0.804688 0.851562
vt 0.671875 0.976562
vt 0.695312 0.851562
vt 0.574219 0.976562
vt 0.593750 0.851562
vt 0.035156 0.746094
vt 0.023438 0.175781
vt 0.023438 0.175781
vt 0.648438 0.718750
vt 0.656250 0.718750
vt 0.707031 0.738281
vt 0.546875 0.738281
vt 0.464844 0.761719
vt 0.148438 0.738281
vt 0.722656 0.738281
vt 0.695312 0.695312
vt 0.695312 0.777344
vt 0.722656 0.738281
vt 0.148438 0.738281
vt 0.695312 0.695312
vt 0.695312 0.777344
vt 0.210938 0.726562
vt 0.550781 0.718750
vt 0.210938 0.703125
vt 0.496094 0.703125
vt 0.324219 0.765625
vt 0.515625 0.738281
vt 0.492188 0.777344
vt 0.164062 0.734375
vt 0.460938 0.695312
vt 0.722656 0.773438
vt 0.074219 0.738281
vt 0.023438 0.773438
vt 0.722656 0.738281
vt 0.035156 0.761719
vt 0.425781 0.703125
vt 0.531250 0.699219
vt 0.480469 0.773438
vt 0.472656 0.765625
vt 0.542969 0.726562
vt 0.492188 0.703125
vt 0.722656 0.765625
vt 0.074219 0.765625
vt 0.046875 0.765625
vt 0.523438 0.714844
vt 0.363281 0.726562
vt 0.433594 0.703125
vt 0.535156 0.746094
vt 0.531250 0.730469
vt 0.523438 0.718750
vt 0.457031 0.703125
vt 0.023438 0.703125
vt 0.472656 0.125000
vt 0.472656 0.703125
vt 0.023438 0.125000
vt 0.160156 0.718750
vt 0.410156 0.757812
vt 0.093750 0.757812
vt 0.410156 0.714844
vt 0.050781 0.765625
vt 0.050781 0.765625
vt 0.628906 0.773438
vt 0.425781 0.761719
vt 0.929688 0.851562
vt 0.972656 0.976562
vt 0.972656 0.437500
vt 0.921875 0.164062
vt 0.023438 0.988281
vt 0.046875 0.761719
vt 0.046875 0.761719
vt 0.035156 0.765625
vt 0.929688 0.851562
vt 0.972656 0.976562
vt 0.050781 0.769531
vt 0.054688 0.769531
vt 0.039062 0.769531
vt 0.648438 0.773438
vt 0.226562 0.703125
vt 0.648438 0.710938
vt 0.296875 0.714844
vt 0.816406 0.937500
vt 0.628906 0.937500
vt 0.710938 0.910156
vt 0.648438 0.773438
vt 0.648438 0.710938
vt 0.226562 0.703125
vt 0.648438 0.765625
vt 0.476562 0.703125
vt 0.226562 0.726562
vt 0.648438 0.765625
vt 0.226562 0.726562
vt 0.476562 0.703125
vt 0.496094 0.937500
vt 0.546875 0.910156
vt 0.398438 0.937500
vt 0.425781 0.910156
vt 0.238281 0.937500
vt 0.269531 0.910156
vt 0.648438 0.738281
vt 0.476562 0.777344
vt 0.414062 0.761719
vt 0.023438 0.773438
vt 0.710938 0.910156
vt 0.628906 0.937500
vt 0.648438 0.738281
vt 0.476562 0.777344
vt 0.039062 0.773438
vt 0.546875 0.910156
vt 0.496094 0.937500
vt 0.425781 0.910156
vt 0.398438 0.937500
vt 0.238281 0.937500
vt 0.269531 0.910156
vn 0.7070 0.7072 -0.0059
vn -0.7072 0.7070 -0.0057
vn -0.7070 -0.7072 -0.0057
vn 0.7072 -0.7070 -0.0059
vn 0.7070 0.7072 -0.0057
vn -0.7072 0.7070 -0.0055
vn -0.7070 -0.7072 -0.0055
vn 0.7072 -0.7070 -0.0057
vn -0.6765 0.6763 -0.2914
vn -0.6764 -0.6765 -0.2914
vn 0.6764 -0.6763 -0.2915
vn 0.6765 -0.6763 -0.2915
vn 0.6763 0.6765 -0.2915
vn -0.6943 0.6942 0.1897
vn -0.6942 -0.6943 0.1896
vn -0.6942 -0.6944 0.1897
vn 0.6944 -0.6942 0.1895
vn 0.6942 0.6943 0.1895
vn 0.6942 0.6944 0.1895
vn -0.9801 0.1813 -0.0812
vn -0.9888 0.1491 -0.0060
vn -0.9933 0.1157 -0.0046
vn -0.9943 0.1057 0.0142
vn -0.9831 0.1813 0.0243
vn -0.9916 0.0947 0.0883
vn -0.9949 0.0735 0.0686
vn -0.9962 0.0369 0.0785
vn -0.7072 0.7070 0.0011
vn -0.7070 -0.7072 0.0011
vn 0.7072 -0.7070 0.0010
vn 0.7070 0.7072 0.0010
vn 0.0001 -0.8265 0.5630
vn 0.0001 -0.2432 0.9700
vn 0.0001 0.0023 1.0000
vn 0.0000 0.4153 0.9097
vn -0.0001 0.0021 -1.0000
vn -0.0001 -0.2428 -0.9701
vn -0.0001 0.5498 -0.8353
vn -0.0001 0.8862 -0.4634
vn -0.0001 0.9551 -0.2964
vn -0.3831 -0.1005 -0.9182
vn -0.3778 -0.1045 -0.9200
vn 0.3779 -0.1006 -0.9204
vn 0.3830 -0.1041 -0.9179
vn -0.0001 -0.3335 -0.9427
vn -0.0001 -0.1087 -0.9941
vn -0.0001 0.1545 -0.9880
vn 0.0001 -0.9656 -0.2599
vn 0.9785 -0.0232 -0.2051
vn 0.9776 -0.0260 -0.2087
vn -0.9783 -0.0258 -0.2057
vn -0.9775 -0.0239 -0.2095
vn -0.0693 0.9163 -0.3943
vn -0.1552 0.9271 -0.3412
vn 0.1550 0.9271 -0.3412
vn 0.0691 0.9164 -0.3944
vn -0.1013 -0.9440 -0.3139
vn -0.1664 -0.9469 -0.2751
vn 0.1665 -0.9469 -0.2751
vn 0.1015 -0.9440 -0.3139
vn -0.9479 -0.1379 -0.2871
vn -0.9457 -0.2135 -0.2452
vn 0.9457 -0.2133 -0.2454
vn 0.9479 -0.1378 -0.2873
vn 0.9962 0.0371 0.0783
vn 0.9949 0.0737 0.0684
vn 0.9916 0.0948 0.0881
vn 0.9831 0.1815 0.0241
vn 0.9943 0.1059 0.0140
vn 0.9933 0.1159 -0.0048
vn 0.9888 0.1493 -0.0062
vn 0.9800 0.1814 -0.0814
vn 0.6700 -0.6699 -0.3198
vn -0.6700 -0.6701 -0.3197
vn -0.6701 0.6699 -0.3197
vn 0.6699 0.6701 -0.3198
vn -0.0001 -0.0000 -1.0000
vn 0.9510 0.1688 -0.2591
vn 0.9507 0.0821 -0.2991
vn -0.9511 0.1686 -0.2589
vn -0.9508 0.0819 -0.2989
vn 0.0001 -0.9126 0.4089
vn 0.0000 0.4269 0.9043
vn -0.8415 -0.4779 0.2518
vn -0.9341 -0.2409 0.2634
vn -0.7714 -0.3300 0.5441
vn -0.6742 0.1468 0.7238
vn -0.6775 0.1441 0.7213
vn -0.6106 0.4522 0.6501
vn -0.4210 0.5080 0.7515
vn -0.6280 0.0432 -0.7770
vn -0.6043 0.0505 -0.7951
vn -0.0717 0.8554 -0.5130
vn -0.0948 0.8556 -0.5090
vn -0.3703 0.2711 -0.8885
vn -0.0077 0.4119 -0.9112
vn -0.0622 0.3413 -0.9379
vn 0.0620 0.3413 -0.9379
vn 0.0075 0.4119 -0.9112
vn 0.3701 0.2711 -0.8886
vn 0.0945 0.8556 -0.5090
vn 0.0714 0.8554 -0.5130
vn 0.6041 0.0506 -0.7953
vn 0.6278 0.0433 -0.7771
vn 0.2480 0.9130 0.3239
vn -0.2481 0.9130 0.3239
vn -0.4553 0.8768 0.1548
vn 0.4391 0.8984 0.0052
vn 0.6569 0.4428 0.6102
vn 0.7796 0.2740 0.5631
vn 0.9502 0.1734 -0.2590
vn 0.9517 0.2242 -0.2097
vn 0.3762 0.8887 -0.2622
vn 0.3112 0.9342 0.1743
vn 0.7411 0.6672 0.0751
vn 0.7644 0.6440 0.0315
vn 0.7917 0.4320 0.4319
vn 0.3688 0.4478 0.8145
vn 0.3428 0.8761 0.3389
vn -0.3429 0.8761 0.3390
vn -0.7488 0.6503 0.1285
vn -0.8053 0.4460 0.3906
vn -0.2706 0.9079 0.3201
vn 0.2705 0.9080 0.3200
vn 0.4108 0.8402 0.3540
vn 0.7120 0.6754 0.1918
vn 0.7043 0.6826 0.1950
vn 0.8658 0.4991 -0.0365
vn -0.8109 0.5405 0.2242
vn -0.2512 0.9348 0.2511
vn -0.0904 0.6501 0.7544
vn -0.4211 0.6610 0.6211
vn -0.3725 0.6118 0.6978
vn -0.0715 0.5759 0.8144
vn 0.9863 0.1367 0.0919
vn 0.9594 0.2446 0.1406
vn 0.7470 0.6461 -0.1570
vn 0.0052 0.8381 0.5455
vn -0.3412 0.8296 0.4419
vn 0.2877 0.9041 0.3159
vn -0.3523 0.1604 -0.9220
vn -0.3490 0.1661 -0.9223
vn -0.0838 0.9716 -0.2213
vn 0.0836 0.9716 -0.2213
vn -0.0396 0.9167 -0.3977
vn 0.6990 0.7091 -0.0932
vn 0.7446 0.5312 0.4042
vn 0.6107 0.4523 0.6500
vn 0.4210 0.5080 0.7514
vn 0.2470 0.4366 0.8651
vn -0.2470 0.4365 0.8651
vn 0.3412 0.8297 0.4418
vn -0.2878 0.9041 0.3159
vn -0.4393 0.8983 0.0053
vn 0.4551 0.8769 0.1547
vn 0.0854 0.1731 0.9812
vn -0.3999 -0.4665 -0.7890
vn 0.1728 -0.8784 -0.4456
vn -0.1727 -0.8784 -0.4456
vn -0.3283 -0.9363 -0.1249
vn -0.3305 -0.9438 -0.0098
vn 0.8814 0.0255 0.4716
vn 0.6458 0.7500 0.1431
vn 0.5951 0.5402 0.5950
vn 0.2511 0.9348 0.2511
vn 0.0904 0.6502 0.7544
vn 0.7508 0.6596 0.0364
vn 0.5574 -0.5335 0.6361
vn 0.0001 -0.5083 0.8612
vn -0.5572 -0.5336 0.6362
vn -0.7509 0.6594 0.0366
vn 0.5401 0.3263 -0.7758
vn 0.1969 0.2763 -0.9407
vn 0.2317 -0.3037 -0.9242
vn -0.2318 -0.3038 -0.9241
vn -0.1895 -0.2555 -0.9481
vn 0.2079 -0.3983 -0.8934
vn -0.2315 -0.1635 -0.9590
vn 0.6369 0.4643 -0.6155
vn -0.6371 0.4642 -0.6153
vn 0.9757 0.1490 0.1605
vn 0.8152 0.0356 0.5781
vn 0.8215 0.0314 0.5694
vn 0.3637 -0.1779 0.9144
vn 0.2417 -0.9627 -0.1215
vn 0.0429 -0.9057 -0.4217
vn -0.4289 -0.6327 -0.6448
vn -0.2861 -0.9278 -0.2395
vn 0.2454 -0.2953 0.9234
vn -0.2452 -0.2953 0.9234
vn -0.3635 -0.1779 0.9144
vn -0.8214 0.0313 0.5695
vn 0.2355 0.2473 -0.9399
vn -0.2357 0.2473 -0.9398
vn -0.1971 0.2762 -0.9407
vn -0.5403 0.3262 -0.7757
vn 0.9342 -0.2407 0.2633
vn 0.7716 -0.3299 0.5439
vn 0.6743 0.1469 0.7237
vn 0.6776 0.1442 0.7212
vn 0.3317 0.0020 0.9434
vn 0.3396 -0.6120 0.7142
vn 0.1365 -0.5806 0.8027
vn 0.2585 -0.5000 0.8265
vn -0.7412 0.6670 0.0752
vn -0.7645 0.6438 0.0316
vn -0.7471 0.6459 -0.1569
vn -0.0053 0.8381 0.5455
vn 0.3488 0.1661 -0.9223
vn 0.3521 0.1605 -0.9221
vn 0.8611 0.1463 -0.4870
vn 0.8689 0.1308 -0.4774
vn -0.9863 0.1365 0.0921
vn -0.9594 0.2444 0.1408
vn -0.1174 0.4735 0.8729
vn -0.3470 0.2456 0.9051
vn -0.5133 0.4650 0.7214
vn -0.6262 0.4856 0.6100
vn -0.6417 0.4926 0.5878
vn -0.5951 0.5401 0.5951
vn -0.7645 -0.6079 0.2145
vn -0.9065 -0.4171 0.0654
vn -0.4292 -0.8681 -0.2493
vn -0.4404 -0.8619 -0.2515
vn -0.2900 0.7717 -0.5660
vn -0.1415 0.8739 -0.4651
vn -0.1186 0.9917 -0.0503
vn -0.3701 0.9124 -0.1748
vn 0.0716 0.5759 0.8144
vn 0.4081 0.3962 0.8225
vn 0.2868 0.8409 0.4590
vn 0.7776 0.0794 0.6237
vn -0.9503 0.1732 -0.2588
vn -0.9518 0.2240 -0.2095
vn -0.8709 0.2640 0.4144
vn -0.8383 0.3425 0.4242
vn 0.4021 0.4656 0.7884
vn -0.4021 0.4655 0.7885
vn -0.3688 0.4478 0.8146
vn -0.7917 0.4318 0.4320
vn -0.1362 -0.5806 0.8027
vn -0.2582 -0.5001 0.8266
vn -0.2585 -0.5003 0.8264
vn -0.2096 -0.4187 0.8836
vn 0.1517 0.9730 -0.1737
vn 0.0778 0.8008 -0.5938
vn 0.3282 0.4952 -0.8044
vn 0.1711 0.1833 -0.9681
vn -0.3931 -0.9149 -0.0923
vn -0.7256 -0.5447 -0.4205
vn -0.0499 -0.8748 -0.4819
vn 0.3416 -0.9136 -0.2204
vn -0.8813 0.0253 0.4718
vn -0.6459 0.7499 0.1432
vn -0.8543 0.4840 0.1895
vn -0.8558 0.5009 0.1290
vn 0.7372 -0.4352 0.5168
vn 0.5700 -0.6534 -0.4982
vn 0.6618 -0.5929 -0.4588
vn 0.3864 -0.3371 -0.8585
vn 0.3097 -0.8855 -0.3463
vn 0.0000 -0.7941 -0.6078
vn -0.3096 -0.8856 -0.3462
vn -0.6618 -0.5930 -0.4586
vn 0.4888 -0.8289 -0.2721
vn 0.2735 -0.8529 -0.4447
vn 0.1929 -0.8819 -0.4301
vn -0.1929 -0.8819 -0.4301
vn -0.6878 0.7168 -0.1144
vn -0.8609 0.5062 -0.0520
vn -0.8582 0.4736 0.1978
vn 0.8582 0.4738 0.1976
vn 0.4561 -0.5160 0.7251
vn 0.2789 -0.6155 0.7371
vn 0.4375 -0.8785 0.1918
vn 0.4293 -0.8680 -0.2494
vn 0.4405 -0.8618 -0.2516
vn 0.4352 -0.8719 0.2245
vn 0.3128 -0.9241 0.2195
vn 0.8105 -0.5343 -0.2398
vn 0.8088 -0.5399 -0.2333
vn -0.4080 0.3961 0.8226
vn -0.2868 0.8408 0.4590
vn -0.7775 0.0793 0.6238
vn -0.4441 0.8638 0.2381
vn -0.8566 0.4140 -0.3080
vn -0.8008 0.5309 0.2772
vn 0.6270 0.2580 -0.7350
vn 0.6492 -0.1035 -0.7536
vn 0.6480 -0.1020 -0.7548
vn 0.0394 0.9167 -0.3977
vn -0.6991 0.7089 -0.0931
vn -0.2761 0.9484 -0.1561
vn 0.8515 -0.0618 -0.5206
vn 0.0231 -0.8634 -0.5040
vn 0.6581 -0.0199 -0.7527
vn -0.1018 0.8648 -0.4917
vn 0.9070 -0.1849 -0.3785
vn -0.0001 0.6290 -0.7774
vn 0.5906 0.7888 0.1702
vn 0.9573 0.2841 0.0538
vn 0.8738 -0.4791 0.0831
vn -0.9070 -0.1850 -0.3783
vn 0.1015 0.8648 -0.4917
vn -0.6582 -0.0200 -0.7525
vn 0.5007 0.3508 0.7913
vn 0.4211 0.6610 0.6211
vn 0.3725 0.6118 0.6978
vn 0.6417 0.4927 0.5877
vn 0.6263 0.4857 0.6098
vn 0.5133 0.4651 0.7213
vn 0.8849 0.3529 -0.3040
vn 0.7741 0.5695 0.2766
vn 0.8542 0.4842 0.1894
vn -0.1680 0.7601 0.6277
vn -0.0290 -0.7127 0.7008
vn -0.2062 -0.8559 0.4742
vn 0.8008 0.5310 0.2770
vn 0.8565 0.4141 -0.3082
vn 0.4439 0.8639 0.2380
vn 0.9960 -0.0883 0.0120
vn 0.7384 -0.4337 0.5165
vn 0.8417 -0.4778 0.2516
vn 0.6074 -0.7789 0.1561
vn 0.5236 -0.8164 0.2436
vn 0.6623 -0.2252 -0.7146
vn 0.0001 -1.0000 0.0001
vn 0.6098 -0.7900 0.0628
vn 0.6019 -0.7875 0.1328
vn 0.0996 -0.3935 -0.9139
vn -0.0428 -0.9057 -0.4217
vn -0.2416 -0.9628 -0.1214
vn 0.3306 -0.9437 -0.0099
vn 0.0499 -0.8748 -0.4819
vn -0.3415 -0.9137 -0.2204
vn 0.3571 -0.8162 0.4541
vn 0.0000 -0.7175 -0.6965
vn -0.8516 -0.0620 -0.5205
vn -0.4349 -0.8720 0.2246
vn -0.6072 -0.7790 0.1562
vn -0.8105 -0.5345 -0.2397
vn -0.8087 -0.5400 -0.2332
vn 0.8534 0.4198 0.3090
vn 0.9539 0.2300 0.1928
vn 0.8710 0.2642 0.4143
vn 0.8383 0.3427 0.4240
vn 0.2862 -0.9277 -0.2396
vn 0.4289 -0.6326 -0.6449
vn 0.4430 0.1996 0.8740
vn -0.7480 0.2192 0.6264
vn -0.9482 0.1488 -0.2807
vn -0.9509 0.1573 -0.2666
vn -0.7183 0.1761 0.6731
vn -0.6634 0.2181 0.7158
vn -0.9878 0.1228 0.0961
vn -0.9499 0.2260 0.2160
vn -0.1060 0.2030 0.9734
vn -0.0001 0.8116 -0.5843
vn 0.8607 0.5064 -0.0521
vn -0.5234 -0.8165 0.2437
vn -0.6624 -0.2253 -0.7144
vn 0.9508 0.1574 -0.2668
vn 0.9481 0.1490 -0.2809
vn 0.6635 0.2182 0.7156
vn 0.7184 0.1763 0.6729
vn 0.9499 0.2261 0.2158
vn 0.9878 0.1230 0.0959
vn 0.1062 0.2030 0.9734
vn -0.3569 -0.8163 0.4542
vn -0.6097 -0.7902 0.0629
vn -0.6017 -0.7876 0.1329
vn -0.0997 -0.3935 -0.9139
vn 0.7481 0.2193 0.6263
vn 0.3932 -0.9148 -0.0924
vn 0.7256 -0.5446 -0.4207
vn -0.4429 0.1996 0.8741
vn -0.4429 0.1995 0.8741
vn 0.1175 0.4736 0.8729
vn 0.3471 0.2457 0.9051
vn 0.8053 0.4461 0.3904
vn 0.7487 0.6504 0.1283
vn -0.8534 0.4197 0.3091
vn -0.9539 0.2298 0.1930
vn 0.3601 0.4616 0.8107
vn -0.6569 0.4427 0.6103
vn -0.3601 0.4615 0.8108
vn -0.0853 0.1731 0.9812
vn -0.3764 0.8886 -0.2621
vn -0.3113 0.9342 0.1743
vn -0.4887 -0.8290 -0.2720
vn -0.2734 -0.8530 -0.4447
vn 0.1893 -0.2554 -0.9481
vn 0.2547 -0.8235 -0.5070
vn -0.9757 0.1488 0.1607
vn -0.8151 0.0355 0.5782
vn 0.5440 0.2838 -0.7896
vn 0.5007 0.3321 -0.7994
vn -0.5442 0.2837 -0.7895
vn -0.5009 0.3320 -0.7993
vn -0.7121 0.6753 0.1919
vn -0.4109 0.8401 0.3541
vn -0.8659 0.4989 -0.0363
vn -0.7044 0.6824 0.1951
vn -0.1713 0.1833 -0.9680
vn -0.3285 0.4951 -0.8043
vn -0.2080 -0.3984 -0.8933
vn 0.2314 -0.1635 -0.9590
vn 0.3247 0.6144 -0.7190
vn -0.0001 0.3227 -0.9465
vn 0.8108 0.5407 0.2241
vn 0.8557 0.5011 0.1288
vn -0.7371 -0.4353 0.5169
vn -0.5700 -0.6535 -0.4981
vn 0.6110 -0.7687 0.1890
vn 0.2065 -0.8559 0.4742
vn -0.1519 0.9730 -0.1737
vn -0.0781 0.8008 -0.5938
vn -0.3315 0.0019 0.9434
vn -0.3393 -0.6121 0.7143
vn -0.6272 0.2579 -0.7349
vn -0.6493 -0.1036 -0.7534
vn 0.1679 0.7601 0.6277
vn 0.0293 -0.7127 0.7008
vn -0.8737 -0.4792 0.0832
vn -0.6108 -0.7689 0.1891
vn -0.5908 0.7887 0.1703
vn -0.9573 0.2839 0.0540
vn 0.2746 0.0134 0.9615
vn 0.1020 -0.1044 0.9893
vn -0.2744 0.0133 0.9615
vn -0.1018 -0.1045 0.9893
vn -0.9960 -0.0884 0.0122
vn -0.7382 -0.4338 0.5166
vn -0.4558 -0.5161 0.7252
vn -0.2787 -0.6155 0.7372
vn 0.9334 -0.0107 0.3588
vn 0.9307 -0.0079 0.3657
vn -0.4373 -0.8786 0.1919
vn -0.3126 -0.9242 0.2196
vn -0.8690 0.1307 -0.4773
vn -0.8612 0.1461 -0.4868
vn -0.8850 0.3528 -0.3038
vn -0.7741 0.5693 0.2767
vn 0.2588 -0.5002 0.8263
vn 0.2098 -0.4186 0.8836
vn -0.9333 -0.0109 0.3590
vn -0.9306 -0.0081 0.3659
vn 0.2897 0.7717 -0.5661
vn 0.1412 0.8739 -0.4651
vn 0.3699 0.9125 -0.1749
vn 0.1184 0.9917 -0.0504
vn 0.7647 -0.6077 0.2144
vn 0.9066 -0.4169 0.0652
vn -0.2546 -0.8235 -0.5069
vn 0.7715 0.0228 0.6358
vn -0.0230 -0.8634 -0.5040
vn -0.6481 -0.1021 -0.7547
vn -0.5006 0.3507 0.7914
vn 0.3998 -0.4664 -0.7891
vn -0.7714 0.0226 0.6360
vn -0.5889 0.4692 0.6581
vn 0.6877 0.7169 -0.1146
vn 0.5889 0.4693 0.6580
vn 0.2759 0.9484 -0.1561
vn -0.9017 -0.4197 0.1042
vn 0.3284 -0.9362 -0.1249
vn -0.3865 -0.3372 -0.8584
vn -0.3250 0.6144 -0.7190
vn 0.9018 -0.4195 0.1040
vn -0.7446 0.5311 0.4043
vn -0.7796 0.2739 0.5632
usemtl m0
s off
f 129/1/1 154/2/1 131/3/1
f 154/2/2 129/1/2 155/4/2
f 135/5/2 155/4/2 129/1/2
f 155/4/3 135/5/3 156/6/3
f 133/7/3 156/6/3 135/5/3
f 156/6/4 133/7/4 157/8/4
f 131/3/4 157/8/4 133/7/4
f 157/8/1 131/3/1 154/2/1
f 167/9/3 133/7/3 169/10/3
f 133/7/4 167/9/4 131/3/4
f 165/11/4 131/3/4 167/9/4
f 131/3/1 165/11/1 129/1/1
f 163/12/1 129/1/1 165/11/1
f 129/1/2 163/12/2 135/5/2
f 169/10/2 135/5/2 163/12/2
f 135/5/3 169/10/3 133/7/3
f 120/13/5 147/14/5 123/15/5
f 147/14/6 120/13/6 149/16/6
f 127/17/6 149/16/6 120/13/6
f 149/16/7 127/17/7 151/18/7
f 125/19/7 151/18/7 127/17/7
f 151/18/8 125/19/8 153/20/8
f 123/15/8 153/20/8 125/19/8
f 153/20/5 123/15/5 147/14/5
f 148/21/9 168/22/9 146/23/9
f 168/22/10 148/21/10 166/24/10
f 150/25/10 166/24/10 148/21/10
f 166/24/11 150/25/11 164/26/11
f 152/27/12 164/26/12 150/25/12
f 164/26/13 152/27/13 162/28/13
f 146/23/13 162/28/13 152/27/13
f 162/28/9 146/23/9 168/22/9
f 144/29/8 123/15/8 142/30/8
f 123/15/5 144/29/5 120/13/5
f 138/31/5 120/13/5 144/29/5
f 120/13/6 138/31/6 127/17/6
f 140/32/6 127/17/6 138/31/6
f 127/17/7 140/32/7 125/19/7
f 142/30/7 125/19/7 140/32/7
f 125/19/8 142/30/8 123/15/8
f 161/33/14 141/34/14 158/35/14
f 141/34/15 161/33/15 143/36/15
f 160/37/16 143/36/16 161/33/16
f 143/36/17 160/37/17 145/38/17
f 159/39/17 145/38/17 160/37/17
f 145/38/18 159/39/18 139/40/18
f 158/35/19 139/40/19 159/39/19
f 139/40/14 158/35/14 141/34/14
f 195/41/20 206/42/20 204/43/20
f 206/42/21 195/41/21 196/44/21
f 185/45/22 196/44/22 195/41/22
f 196/44/23 185/45/23 187/46/23
f 219/47/24 187/46/24 185/45/24
f 187/46/25 219/47/25 216/48/25
f 174/49/26 216/48/26 219/47/26
f 216/48/27 174/49/27 178/50/27
f 134/51/28 161/33/28 132/52/28
f 161/33/29 134/51/29 160/37/29
f 136/53/29 160/37/29 134/51/29
f 160/37/30 136/53/30 159/39/30
f 137/54/30 159/39/30 136/53/30
f 159/39/31 137/54/31 158/35/31
f 132/52/31 158/35/31 137/54/31
f 158/35/28 132/52/28 161/33/28
f 218/55/32 170/56/32 173/57/32
f 170/56/32 218/55/32 212/58/32
f 184/59/33 212/58/33 218/55/33
f 212/58/33 184/59/33 182/60/33
f 194/61/34 182/60/34 184/59/34
f 182/60/34 194/61/34 192/62/34
f 203/63/35 192/62/35 194/61/35
f 192/62/35 203/63/35 200/64/35
f 199/65/36 186/66/36 189/67/36
f 186/66/36 199/65/36 197/68/36
f 210/69/37 197/68/37 199/65/37
f 197/68/37 210/69/37 207/70/37
f 217/71/38 191/72/38 188/73/38
f 191/72/38 217/71/38 215/74/38
f 176/75/39 215/74/39 217/71/39
f 215/74/39 176/75/39 179/76/39
f 43/77/40 36/78/40 39/79/40
f 36/78/40 43/77/40 48/80/40
f 92/81/41 17/82/41 28/83/41
f 17/82/42 92/81/42 107/84/42
f 82/85/43 32/86/43 22/87/43
f 32/86/44 82/85/44 73/88/44
f 60/89/45 27/90/45 33/91/45
f 27/90/45 60/89/45 55/92/45
f 30/93/46 15/94/46 20/95/46
f 15/94/46 30/93/46 25/96/46
f 49/97/47 22/87/47 17/82/47
f 22/87/47 49/97/47 45/98/47
f 63/99/48 53/100/48 58/101/48
f 53/100/48 63/99/48 67/102/48
f 80/103/49 76/104/49 71/105/49
f 76/104/50 80/103/50 86/106/50
f 100/107/51 90/108/51 96/109/51
f 90/108/52 100/107/52 105/110/52
f 8/111/53 106/112/53 101/113/53
f 106/112/54 8/111/54 16/114/54
f 13/115/55 81/116/55 23/117/55
f 81/116/56 13/115/56 87/118/56
f 91/119/57 1/120/57 97/121/57
f 1/120/58 91/119/58 26/122/58
f 72/123/59 4/124/59 34/125/59
f 4/124/60 72/123/60 77/126/60
f 54/127/61 1/120/61 26/122/61
f 1/120/62 54/127/62 68/128/62
f 59/129/63 4/124/63 64/130/63
f 4/124/64 59/129/64 31/131/64
f 171/132/65 214/133/65 181/134/65
f 214/133/66 171/132/66 213/135/66
f 213/135/67 190/136/67 214/133/67
f 190/136/68 213/135/68 183/137/68
f 183/137/69 198/138/69 190/136/69
f 198/138/70 183/137/70 193/139/70
f 193/139/71 209/140/71 198/138/71
f 209/140/72 193/139/72 201/141/72
f 118/142/73 130/143/73 128/144/73
f 130/143/73 118/142/73 121/145/73
f 126/146/74 118/142/74 128/144/74
f 118/142/74 126/146/74 114/147/74
f 124/148/75 114/147/75 126/146/75
f 114/147/75 124/148/75 110/149/75
f 121/145/76 124/148/76 130/143/76
f 124/148/76 121/145/76 110/149/76
f 119/150/77 111/151/77 122/152/77
f 111/151/77 119/150/77 115/153/77
f 13/115/78 44/154/78 40/155/78
f 44/154/79 13/115/79 21/156/79
f 50/157/80 9/158/80 37/159/80
f 9/158/81 50/157/81 18/160/81
f 208/161/82 202/162/82 205/163/82
f 202/162/82 208/161/82 211/164/82
f 180/165/83 175/166/83 172/167/83
f 175/166/83 180/165/83 177/168/83
f 575/169/84 541/170/84 515/171/84
f 541/170/85 575/169/85 532/172/85
f 550/173/86 532/172/86 575/169/86
f 532/172/87 550/173/87 523/174/87
f 522/175/88 523/174/88 550/173/88
f 523/174/89 522/175/89 552/176/89
f 335/177/90 552/176/90 522/175/90
f 42/178/91 467/179/91 6/180/91
f 467/179/92 42/178/92 47/181/92
f 11/182/93 47/181/93 42/178/93
f 47/181/94 11/182/94 486/183/94
f 501/184/95 486/183/95 11/182/95
f 486/183/96 501/184/96 496/185/96
f 516/186/97 496/185/97 501/184/97
f 266/187/98 259/188/98 283/189/98
f 259/188/99 266/187/99 246/190/99
f 402/191/100 246/190/100 266/187/100
f 246/190/101 402/191/101 414/192/101
f 412/193/102 414/192/102 402/191/102
f 414/192/103 412/193/103 222/194/103
f 399/195/104 222/194/104 412/193/104
f 404/196/105 250/197/105 591/198/105
f 250/197/106 404/196/106 388/199/106
f 405/200/107 388/199/107 404/196/107
f 388/199/108 405/200/108 406/201/108
f 387/202/109 406/201/109 405/200/109
f 406/201/110 387/202/110 240/203/110
f 410/204/111 395/205/111 244/206/111
f 395/205/112 410/204/112 409/207/112
f 396/208/113 409/207/113 410/204/113
f 409/207/114 396/208/114 408/209/114
f 254/210/115 408/209/115 396/208/115
f 408/209/116 254/210/116 392/211/116
f 351/212/117 346/213/117 343/214/117
f 346/213/118 351/212/118 352/215/118
f 353/216/119 352/215/119 351/212/119
f 352/215/120 353/216/120 564/217/120
f 562/218/121 564/217/121 353/216/121
f 564/217/122 562/218/122 558/219/122
f 334/220/123 304/221/123 530/222/123
f 304/221/124 334/220/124 306/223/124
f 337/224/125 306/223/125 334/220/125
f 306/223/126 337/224/126 384/225/126
f 338/226/127 384/225/127 337/224/127
f 384/225/128 338/226/128 298/227/128
f 596/228/129 499/229/129 492/230/129
f 499/229/130 596/228/130 498/231/130
f 490/232/131 498/231/131 596/228/131
f 498/231/132 490/232/132 565/233/132
f 592/234/133 565/233/133 490/232/133
f 565/233/134 592/234/134 251/235/134
f 408/209/135 391/236/135 242/237/135
f 391/236/136 408/209/136 407/238/136
f 392/211/137 407/238/137 408/209/137
f 407/238/138 392/211/138 406/201/138
f 252/239/139 406/201/139 392/211/139
f 406/201/140 252/239/140 388/199/140
f 488/240/141 229/241/141 472/242/141
f 229/241/142 488/240/142 249/243/142
f 261/244/143 249/243/143 488/240/143
f 249/243/144 261/244/144 248/245/144
f 258/246/145 248/245/145 261/244/145
f 248/245/146 258/246/146 247/247/146
f 336/248/147 295/249/147 339/250/147
f 295/249/148 336/248/148 293/251/148
f 335/177/149 293/251/149 336/248/149
f 293/251/150 335/177/150 292/252/150
f 522/175/151 292/252/151 335/177/151
f 19/253/152 489/254/152 595/255/152
f 489/254/153 19/253/153 591/198/153
f 14/256/154 591/198/154 19/253/154
f 591/198/155 14/256/155 404/196/155
f 238/257/156 404/196/156 14/256/156
f 429/258/157 476/259/157 78/260/157
f 476/259/158 429/258/158 230/261/158
f 234/262/159 230/261/159 429/258/159
f 230/261/160 234/262/160 239/263/160
f 386/264/161 239/263/161 234/262/161
f 279/265/162 265/266/162 282/267/162
f 265/266/163 279/265/163 264/268/163
f 263/269/164 264/268/164 279/265/164
f 264/268/165 263/269/165 393/270/165
f 253/271/166 393/270/166 263/269/166
f 449/272/167 509/273/167 566/274/167
f 509/273/168 449/272/168 274/275/168
f 378/276/169 274/275/169 449/272/169
f 274/275/170 378/276/170 276/277/170
f 356/278/171 276/277/171 378/276/171
f 559/279/172 585/280/172 529/281/172
f 585/280/173 559/279/173 381/282/173
f 380/283/174 381/282/174 559/279/174
f 381/282/175 380/283/175 344/284/175
f 350/285/176 344/284/176 380/283/176
f 287/286/177 340/287/177 297/288/177
f 340/287/178 287/286/178 341/289/178
f 289/290/179 341/289/179 287/286/179
f 341/289/180 289/290/180 520/291/180
f 342/292/181 385/293/181 299/294/181
f 385/293/182 342/292/182 307/295/182
f 345/296/183 307/295/183 342/292/183
f 307/295/184 345/296/184 347/297/184
f 234/262/185 241/298/185 386/264/185
f 241/298/186 234/262/186 231/299/186
f 427/300/187 231/299/187 234/262/187
f 231/299/188 427/300/188 425/301/188
f 347/297/189 305/302/189 307/295/189
f 305/302/190 347/297/190 531/303/190
f 560/304/191 531/303/191 347/297/191
f 531/303/192 560/304/192 557/305/192
f 381/282/193 302/306/193 585/280/193
f 302/306/194 381/282/194 382/307/194
f 344/284/195 382/307/195 381/282/195
f 382/307/196 344/284/196 301/308/196
f 313/309/197 365/310/197 323/311/197
f 365/310/198 313/309/198 332/312/198
f 295/249/199 332/312/199 313/309/199
f 332/312/200 295/249/200 293/251/200
f 363/313/201 332/312/201 293/251/201
f 332/312/202 363/313/202 357/314/202
f 311/315/203 357/314/203 363/313/203
f 357/314/204 311/315/204 273/316/204
f 29/317/205 491/318/205 2/319/205
f 491/318/206 29/317/206 595/255/206
f 24/320/207 595/255/207 29/317/207
f 595/255/208 24/320/208 19/253/208
f 248/245/209 229/241/209 249/243/209
f 229/241/210 248/245/210 227/321/210
f 413/322/211 227/321/211 248/245/211
f 227/321/212 413/322/212 221/323/212
f 594/324/213 29/317/213 482/325/213
f 29/317/214 594/324/214 24/320/214
f 480/326/215 24/320/215 594/324/215
f 24/320/216 480/326/216 19/253/216
f 569/327/217 508/328/217 273/316/217
f 508/328/218 569/327/218 498/231/218
f 512/329/219 498/231/219 569/327/219
f 498/231/220 512/329/220 499/229/220
f 233/330/221 419/331/221 417/332/221
f 419/331/222 233/330/222 236/333/222
f 245/334/223 236/333/223 233/330/223
f 236/333/224 245/334/224 394/335/224
f 538/336/225 374/337/225 582/338/225
f 374/337/226 538/336/226 321/339/226
f 518/340/227 321/339/227 538/336/227
f 321/339/228 518/340/228 288/341/228
f 355/342/229 251/235/229 389/343/229
f 251/235/230 355/342/230 379/344/230
f 376/345/231 379/344/231 355/342/231
f 379/344/232 376/345/232 308/346/232
f 598/347/233 38/348/233 484/349/233
f 38/348/234 598/347/234 35/350/234
f 482/325/235 35/350/235 598/347/235
f 35/350/236 482/325/236 29/317/236
f 352/215/237 348/351/237 346/213/237
f 348/351/238 352/215/238 561/352/238
f 564/217/239 561/352/239 352/215/239
f 561/352/240 564/217/240 558/219/240
f 567/353/241 311/315/241 574/354/241
f 311/315/242 567/353/242 273/316/242
f 571/355/243 273/316/243 567/353/243
f 273/316/244 571/355/244 569/327/244
f 316/356/245 324/357/245 325/358/245
f 324/357/246 316/356/246 314/359/246
f 286/360/247 314/359/247 316/356/247
f 314/359/248 286/360/248 296/361/248
f 232/362/249 423/363/249 421/364/249
f 423/363/250 232/362/250 235/365/250
f 243/366/251 235/365/251 232/362/251
f 235/365/252 243/366/252 390/367/252
f 500/368/253 512/329/253 515/171/253
f 512/329/254 500/368/254 499/229/254
f 3/369/255 499/229/255 500/368/255
f 499/229/256 3/369/256 492/230/256
f 260/370/257 267/371/257 280/372/257
f 267/371/258 260/370/258 272/373/258
f 461/374/259 272/373/259 260/370/259
f 272/373/260 461/374/260 458/375/260
f 262/376/261 461/374/261 260/370/261
f 461/374/262 262/376/262 463/377/262
f 497/378/263 463/377/263 262/376/263
f 463/377/264 497/378/264 507/379/264
f 586/380/265 556/381/265 528/382/265
f 556/381/266 586/380/266 341/289/266
f 303/383/267 341/289/267 586/380/267
f 341/289/268 303/383/268 383/384/268
f 584/385/269 449/272/269 566/274/269
f 449/272/270 584/385/270 375/386/270
f 309/387/271 375/386/271 584/385/271
f 375/386/272 309/387/272 377/388/272
f 479/389/273 465/390/273 51/391/273
f 465/390/274 479/389/274 5/392/274
f 485/393/275 5/392/275 479/389/275
f 478/394/276 485/393/276 475/395/276
f 485/393/277 478/394/277 597/396/277
f 483/397/278 597/396/278 478/394/278
f 479/389/279 475/395/279 485/393/279
f 475/395/280 479/389/280 56/398/280
f 51/391/281 56/398/281 479/389/281
f 379/344/282 565/233/282 251/235/282
f 565/233/283 379/344/283 583/399/283
f 308/346/284 583/399/284 379/344/284
f 38/348/285 10/400/285 41/401/285
f 10/400/286 38/348/286 493/402/286
f 2/319/287 493/402/287 38/348/287
f 327/403/288 331/404/288 370/405/288
f 331/404/289 327/403/289 271/406/289
f 269/407/290 271/406/290 327/403/290
f 488/240/291 495/408/291 261/244/291
f 495/408/292 488/240/292 487/409/292
f 46/410/293 487/409/293 488/240/293
f 464/411/294 112/412/294 454/413/294
f 112/412/295 464/411/295 548/414/295
f 505/415/296 548/414/296 464/411/296
f 464/411/297 117/416/297 505/415/297
f 117/416/298 464/411/298 462/417/298
f 460/418/299 462/417/299 464/411/299
f 322/419/300 360/420/300 278/421/300
f 360/420/301 322/419/301 362/422/301
f 358/423/302 362/422/302 322/419/302
f 464/411/303 459/424/303 460/418/303
f 459/424/304 464/411/304 270/425/304
f 330/426/305 270/425/305 464/411/305
f 355/342/306 263/269/306 275/427/306
f 263/269/307 355/342/307 253/271/307
f 389/343/308 253/271/308 355/342/308
f 359/428/309 263/269/309 279/265/309
f 263/269/310 359/428/310 275/427/310
f 273/316/311 275/427/311 359/428/311
f 265/266/312 257/429/312 403/430/312
f 257/429/313 265/266/313 397/431/313
f 264/268/314 397/431/314 265/266/314
f 540/432/315 514/433/315 510/434/315
f 514/433/316 540/432/316 576/435/316
f 551/436/317 576/435/317 540/432/317
f 410/204/318 256/437/318 396/208/318
f 256/437/319 410/204/319 401/438/319
f 411/439/320 401/438/320 410/204/320
f 323/311/321 268/440/321 326/441/321
f 268/440/322 323/311/322 282/267/322
f 365/310/323 282/267/323 323/311/323
f 478/394/324 474/442/324 483/397/324
f 474/442/325 478/394/325 65/443/325
f 61/444/326 65/443/326 478/394/326
f 228/445/327 448/446/327 104/447/327
f 448/446/327 228/445/327 443/448/327
f 438/449/327 443/448/327 228/445/327
f 228/445/327 85/450/327 470/451/327
f 85/450/327 228/445/327 95/452/327
f 104/447/327 95/452/327 228/445/327
f 477/453/328 473/454/328 481/455/328
f 473/454/329 477/453/329 74/456/329
f 69/457/330 74/456/330 477/453/330
f 476/259/331 481/455/331 473/454/331
f 481/455/332 476/259/332 589/458/332
f 239/263/333 589/458/333 476/259/333
f 477/453/334 483/397/334 474/442/334
f 483/397/335 477/453/335 593/459/335
f 481/455/336 593/459/336 477/453/336
f 451/460/337 464/411/337 454/413/337
f 464/411/338 451/460/338 456/461/338
f 243/366/339 236/333/339 394/335/339
f 236/333/340 243/366/340 232/362/340
f 417/332/341 237/462/341 233/330/341
f 237/462/342 417/332/342 415/463/342
f 411/439/343 244/206/343 400/464/343
f 244/206/344 411/439/344 410/204/344
f 409/207/345 242/237/345 395/205/345
f 242/237/346 409/207/346 408/209/346
f 78/260/347 473/454/347 74/456/347
f 473/454/348 78/260/348 476/259/348
f 446/465/349 79/466/349 108/467/349
f 79/466/349 446/465/349 430/468/349
f 108/467/350 75/469/350 102/470/350
f 75/469/350 108/467/350 79/466/350
f 88/471/351 57/472/351 83/473/351
f 57/472/352 88/471/352 62/474/352
f 93/475/353 62/474/353 88/471/353
f 62/474/354 93/475/354 66/476/354
f 98/477/355 66/476/355 93/475/355
f 66/476/356 98/477/356 70/478/356
f 102/470/357 70/478/357 98/477/357
f 70/478/357 102/470/357 75/469/357
f 375/386/358 378/276/358 449/272/358
f 378/276/359 375/386/359 377/388/359
f 421/364/360 236/333/360 232/362/360
f 236/333/361 421/364/361 419/331/361
f 434/479/362 418/480/362 420/481/362
f 418/480/363 434/479/363 431/482/363
f 436/483/364 420/481/364 422/484/364
f 420/481/365 436/483/365 434/479/365
f 439/485/366 422/484/366 424/486/366
f 422/484/367 439/485/367 436/483/367
f 441/487/368 424/486/368 426/488/368
f 424/486/368 441/487/368 439/485/368
f 241/298/369 235/365/369 390/367/369
f 235/365/370 241/298/370 231/299/370
f 425/301/371 235/365/371 231/299/371
f 235/365/372 425/301/372 423/363/372
f 444/489/373 426/488/373 428/490/373
f 426/488/373 444/489/373 441/487/373
f 69/457/374 474/442/374 65/443/374
f 474/442/375 69/457/375 477/453/375
f 428/490/376 446/465/376 444/489/376
f 446/465/377 428/490/377 430/468/377
f 407/238/378 240/203/378 391/236/378
f 240/203/379 407/238/379 406/201/379
f 349/491/380 351/212/380 343/214/380
f 351/212/381 349/491/381 353/216/381
f 484/349/382 41/401/382 7/492/382
f 41/401/383 484/349/383 38/348/383
f 14/256/384 590/493/384 238/257/384
f 590/493/385 14/256/385 19/253/385
f 405/200/386 238/257/386 387/202/386
f 238/257/387 405/200/387 404/196/387
f 35/350/388 2/319/388 38/348/388
f 2/319/389 35/350/389 29/317/389
f 340/287/390 383/384/390 300/494/390
f 383/384/391 340/287/391 341/289/391
f 563/495/392 380/283/392 559/279/392
f 380/283/393 563/495/393 354/496/393
f 588/497/394 557/305/394 527/498/394
f 557/305/395 588/497/395 531/303/395
f 371/499/396 457/500/396 452/501/396
f 457/500/397 371/499/397 329/502/397
f 113/503/398 581/504/398 455/505/398
f 581/504/399 113/503/399 547/506/399
f 553/507/400 530/222/400 587/508/400
f 530/222/401 553/507/401 334/220/401
f 554/509/402 587/508/402 526/510/402
f 587/508/403 554/509/403 553/507/403
f 519/511/404 533/512/404 524/513/404
f 533/512/405 519/511/405 535/514/405
f 556/381/406 520/291/406 525/515/406
f 520/291/407 556/381/407 341/289/407
f 450/516/408 373/517/408 367/518/408
f 373/517/409 450/516/409 453/519/409
f 255/520/410 264/268/410 393/270/410
f 264/268/411 255/520/411 397/431/411
f 502/521/412 497/378/412 513/522/412
f 497/378/413 502/521/413 507/379/413
f 322/419/414 333/523/414 358/423/414
f 333/523/415 322/419/415 366/524/415
f 542/525/416 535/514/416 543/526/416
f 535/514/417 542/525/417 533/512/417
f 550/173/418 574/354/418 522/175/418
f 574/354/419 550/173/419 567/353/419
f 549/527/420 545/528/420 580/529/420
f 545/528/421 549/527/421 506/530/421
f 281/531/422 322/419/422 277/532/422
f 322/419/423 281/531/423 366/524/423
f 568/533/424 540/432/424 572/534/424
f 540/432/425 568/533/425 551/436/425
f 570/535/426 540/432/426 511/536/426
f 540/432/427 570/535/427 572/534/427
f 291/537/428 364/538/428 294/539/428
f 364/538/429 291/537/429 312/540/429
f 573/541/430 290/542/430 521/543/430
f 290/542/431 573/541/431 310/544/431
f 503/545/432 541/170/432 544/546/432
f 541/170/433 503/545/433 515/171/433
f 220/547/434 237/462/434 415/463/434
f 237/462/435 220/547/435 398/548/435
f 416/549/436 431/482/436 223/550/436
f 431/482/437 416/549/437 418/480/437
f 245/334/438 237/462/438 398/548/438
f 237/462/439 245/334/439 233/330/439
f 228/445/327 433/551/327 438/449/327
f 433/551/327 228/445/327 225/552/327
f 46/410/440 472/242/440 466/553/440
f 472/242/441 46/410/441 488/240/441
f 494/554/442 500/368/442 12/555/442
f 500/368/443 494/554/443 3/369/443
f 273/316/444 361/556/444 357/314/444
f 361/556/445 273/316/445 359/428/445
f 83/473/446 52/557/446 468/558/446
f 52/557/447 83/473/447 57/472/447
f 374/337/448 319/559/448 372/560/448
f 319/559/449 374/337/449 321/339/449
f 285/561/450 321/339/450 288/341/450
f 321/339/451 285/561/451 319/559/451
f 61/444/452 475/395/452 56/398/452
f 475/395/453 61/444/453 478/394/453
f 380/283/454 354/496/454 350/285/454
f 320/562/455 315/563/455 368/564/455
f 456/461/456 330/426/456 464/411/456
f 504/565/457 545/528/457 506/530/457
f 565/233/458 508/328/458 498/231/458
f 447/566/327 442/567/327 445/568/327
f 234/262/459 429/258/459 427/300/459
f 539/569/460 578/570/460 534/571/460
f 579/572/461 546/573/461 536/574/461
f 356/278/462 378/276/462 377/388/462
f 369/575/463 317/576/463 328/577/463
f 442/567/327 437/578/327 440/579/327
f 437/578/327 432/580/327 435/581/327
f 226/582/327 224/583/327 432/580/327
f 413/322/464 248/245/464 247/247/464
f 537/584/465 534/571/465 517/585/465
f 230/261/466 239/263/466 476/259/466
f 507/379/467 116/586/467 463/377/467
f 453/519/468 577/587/468 373/517/468
f 447/566/327 109/588/327 103/589/327
f 318/590/469 284/591/469 315/563/469
f 552/176/470 555/592/470 523/174/470
f 590/493/471 19/253/471 480/326/471
f 103/589/327 99/593/327 94/594/327
f 94/594/327 89/595/327 84/596/327
f 471/597/327 84/596/327 469/598/327
